<svg xmlns="http://www.w3.org/2000/svg" width="805" height="600"><rect width="805" height="600" x="0" y="0" fill="#e4dbdb" id="backgorund"/><g id="viz"><clipPath id="serieClipPath"><rect x="-50" y="-10" width="805" height="600"/></clipPath><g transform="translate(0,0)"><g transform="translate(50,10)" clip-path="url(#serieClipPath)"><g id="axis"><g transform="translate(0,555)" fill="none" font-size="10" font-family="sans-serif" text-anchor="middle"><path class="domain" stroke="currentColor" d="M0,6V0H738V6"/><g class="tick" opacity="1" transform="translate(0,0)"><line stroke="currentColor" y2="6"/><text fill="currentColor" y="9" dy="0.71em">Thu 13</text></g><g class="tick" opacity="1" transform="translate(50.89655172413793,0)"><line stroke="currentColor" y2="6"/><text fill="currentColor" y="9" dy="0.71em">Sat 15</text></g><g class="tick" opacity="1" transform="translate(101.79310344827586,0)"><line stroke="currentColor" y2="6"/><text fill="currentColor" y="9" dy="0.71em">Mon 17</text></g><g class="tick" opacity="1" transform="translate(152.68965517241378,0)"><line stroke="currentColor" y2="6"/><text fill="currentColor" y="9" dy="0.71em">Wed 19</text></g><g class="tick" opacity="1" transform="translate(203.58620689655172,0)"><line stroke="currentColor" y2="6"/><text fill="currentColor" y="9" dy="0.71em">Fri 21</text></g><g class="tick" opacity="1" transform="translate(254.48275862068968,0)"><line stroke="currentColor" y2="6"/><text fill="currentColor" y="9" dy="0.71em">Oct 23</text></g><g class="tick" opacity="1" transform="translate(305.37931034482756,0)"><line stroke="currentColor" y2="6"/><text fill="currentColor" y="9" dy="0.71em">Tue 25</text></g><g class="tick" opacity="1" transform="translate(356.2758620689655,0)"><line stroke="currentColor" y2="6"/><text fill="currentColor" y="9" dy="0.71em">Thu 27</text></g><g class="tick" opacity="1" transform="translate(407.17241379310343,0)"><line stroke="currentColor" y2="6"/><text fill="currentColor" y="9" dy="0.71em">Sat 29</text></g><g class="tick" opacity="1" transform="translate(458.0689655172414,0)"><line stroke="currentColor" y2="6"/><text fill="currentColor" y="9" dy="0.71em">Mon 31</text></g><g class="tick" opacity="1" transform="translate(483.51724137931035,0)"><line stroke="currentColor" y2="6"/><text fill="currentColor" y="9" dy="0.71em">November</text></g><g class="tick" opacity="1" transform="translate(534.4137931034483,0)"><line stroke="currentColor" y2="6"/><text fill="currentColor" y="9" dy="0.71em">Thu 03</text></g><g class="tick" opacity="1" transform="translate(585.3103448275863,0)"><line stroke="currentColor" y2="6"/><text fill="currentColor" y="9" dy="0.71em">Sat 05</text></g><g class="tick" opacity="1" transform="translate(636.2068965517241,0)"><line stroke="currentColor" y2="6"/><text fill="currentColor" y="9" dy="0.71em">Mon 07</text></g><g class="tick" opacity="1" transform="translate(687.1034482758621,0)"><line stroke="currentColor" y2="6"/><text fill="currentColor" y="9" dy="0.71em">Wed 09</text></g><g class="tick" opacity="1" transform="translate(738,0)"><line stroke="currentColor" y2="6"/><text fill="currentColor" y="9" dy="0.71em">Fri 11</text></g><text x="738" dy="-5" text-anchor="end" style="font-family: Arial, sans-serif; font-size: 12px; fill: rgb(123, 123, 123); font-weight: bold;">日期</text></g><g transform="translate(0,0)" fill="none" font-size="10" font-family="sans-serif" text-anchor="end"><path class="domain" stroke="currentColor" d="M0,555V0"/><g class="tick" opacity="1" transform="translate(0,555)"><line stroke="currentColor" x2="-6"/><text fill="currentColor" x="-9" dy="0.32em">370</text></g><g class="tick" opacity="1" transform="translate(0,485.625)"><line stroke="currentColor" x2="-6"/><text fill="currentColor" x="-9" dy="0.32em">380</text></g><g class="tick" opacity="1" transform="translate(0,416.25)"><line stroke="currentColor" x2="-6"/><text fill="currentColor" x="-9" dy="0.32em">390</text></g><g class="tick" opacity="1" transform="translate(0,346.875)"><line stroke="currentColor" x2="-6"/><text fill="currentColor" x="-9" dy="0.32em">400</text></g><g class="tick" opacity="1" transform="translate(0,277.5)"><line stroke="currentColor" x2="-6"/><text fill="currentColor" x="-9" dy="0.32em">410</text></g><g class="tick" opacity="1" transform="translate(0,208.125)"><line stroke="currentColor" x2="-6"/><text fill="currentColor" x="-9" dy="0.32em">420</text></g><g class="tick" opacity="1" transform="translate(0,138.75)"><line stroke="currentColor" x2="-6"/><text fill="currentColor" x="-9" dy="0.32em">430</text></g><g class="tick" opacity="1" transform="translate(0,69.375)"><line stroke="currentColor" x2="-6"/><text fill="currentColor" x="-9" dy="0.32em">440</text></g><g class="tick" opacity="1" transform="translate(0,0)"><line stroke="currentColor" x2="-6"/><text fill="currentColor" x="-9" dy="0.32em">450</text></g><text x="4" text-anchor="start" dominant-baseline="hanging" style="font-family: Arial, sans-serif; font-size: 12px; fill: rgb(123, 123, 123); font-weight: bold;">收盤</text></g></g><g id="viz"><g><path d="M0,381.5625C12.724137931034482,381.5625,12.724137931034482,263.625,25.448275862068964,263.625C63.62068965517241,263.625,63.62068965517241,367.6875,101.79310344827586,367.6875C114.51724137931035,367.6875,114.51724137931035,298.3125,127.24137931034484,298.3125C139.9655172413793,298.3125,139.9655172413793,378.09375,152.68965517241378,378.09375C165.41379310344826,378.09375,165.41379310344826,364.21875,178.13793103448276,364.21875C190.86206896551724,364.21875,190.86206896551724,419.71875,203.58620689655172,419.71875C241.75862068965517,419.71875,241.75862068965517,437.0625,279.9310344827586,437.0625C292.6551724137931,437.0625,292.6551724137931,548.0625,305.37931034482756,548.0625C318.1034482758621,548.0625,318.1034482758621,513.375,330.82758620689657,513.375C343.55172413793105,513.375,343.55172413793105,447.46875,356.2758620689655,447.46875C369,447.46875,369,489.09375,381.72413793103453,489.09375C419.89655172413796,489.09375,419.89655172413796,416.25,458.0689655172414,416.25C470.7931034482759,416.25,470.7931034482759,405.84375,483.51724137931035,405.84375C496.2413793103449,405.84375,496.2413793103449,381.5625,508.96551724137936,381.5625C521.6896551724138,381.5625,521.6896551724138,457.875,534.4137931034483,457.875C547.1379310344828,457.875,547.1379310344828,471.75,559.8620689655172,471.75C598.0344827586207,471.75,598.0344827586207,416.25,636.2068965517241,416.25C648.9310344827586,416.25,648.9310344827586,353.8125,661.6551724137931,353.8125C674.3793103448277,353.8125,674.3793103448277,228.9375,687.1034482758621,228.9375C699.8275862068965,228.9375,699.8275862068965,294.84375,712.551724137931,294.84375C725.2758620689656,294.84375,725.2758620689656,58.96874999999998,738,58.96874999999998" stroke="#1f77b4" fill="none"/><text font-family="sans-serif" font-size="10" class="labels" x="738" y="58.96874999999998" dx="0" dy="-4" text-anchor="middle"/></g></g></g><text y="4" x="4" style="font-family: Arial, sans-serif; font-size: 12px; fill: black; font-weight: bold; dominant-baseline: hanging;"/></g><g id="grid"><rect x="0" y="0" width="805" height="600" fill="none" stroke="#ccc"/></g></g></svg>